<?xml version="1.0" encoding="UTF-8"?>
<svg width="38px" height="25px" viewBox="0 0 38 25" version="1.1" xmlns="http://www.w3.org/2000/svg" xmlns:xlink="http://www.w3.org/1999/xlink">
    <title>amex</title>
    <g id="credit_cards" stroke="none" stroke-width="1" fill="none" fill-rule="evenodd">
        <g id="10-amex-/-Primitives-/-border">
            <g id="amex">
                <path d="M33.3439568,25 L4.65604324,25 C2.63683243,25 1,23.2475969 1,21.085817 L1,3.91418298 C1,1.75240314 2.63683243,0 4.65604324,0 L33.3439568,0 C35.3631676,0 37,1.75240314 37,3.91418298 L37,21.0859212 C37,23.2475969 35.3631676,25 33.3439568,25 Z" id="Shape" fill="#006FAC"></path>
                <g id="Group" transform="translate(3.000000, 7.000000)">
                    <path d="M1.9376142,4.80111909 L3.27640701,4.80111909 L3.57830062,4.07296564 L4.25414945,4.07296564 L4.55524365,4.80111909 L7.18948952,4.80111909 L7.18948952,4.24438319 L7.42463192,4.80346024 L8.7921466,4.80346024 L9.027289,4.23610353 L9.027289,4.80111909 L15.5738751,4.80111909 L15.5707916,3.60582139 L15.697499,3.60582139 C15.786177,3.60890485 15.8121009,3.61712741 15.8121009,3.76353468 L15.8121009,4.80111909 L19.1980259,4.80111909 L19.1980259,4.52286535 C19.4711406,4.66921551 19.8959158,4.80111909 20.4548786,4.80111909 L21.8793231,4.80111909 L22.184186,4.07296564 L22.8600348,4.07296564 L23.1581597,4.80111909 L25.9031247,4.80111909 L25.9031247,4.10945325 L26.3188208,4.80111909 L28.5184701,4.80111909 L28.5184701,0.228918382 L26.3415471,0.228918382 L26.3415471,0.768866552 L26.0367413,0.228918382 L23.8029456,0.228918382 L23.8029456,0.768866552 L23.5229788,0.228918382 L20.5056986,0.228918382 C20.0006392,0.228918382 19.5566209,0.299381161 19.1980259,0.495866108 L19.1980259,0.228918382 L17.1158337,0.228918382 L17.1158337,0.495866108 C16.8876005,0.293385544 16.5766278,0.228918382 16.2308234,0.228918382 L8.6237554,0.228918382 L8.11332851,1.4098266 L7.58914024,0.228918382 L5.19312024,0.228918382 L5.19312024,0.768866552 L4.92988408,0.228918382 L2.88646348,0.228918382 L1.9375,2.40275794 L0.817382813,4.80111909 L1.9376142,4.80111909 Z M27.8200092,4.15718979 L26.7095638,4.15718979 L25.2243066,1.69670262 L25.2243066,4.15718979 L23.6285017,4.15718979 L23.3235817,3.42595287 L21.6958001,3.42595287 L21.3999592,4.15718979 L20.4830295,4.15718979 C20.102165,4.15718979 19.6199461,4.07296564 19.3468314,3.79459769 C19.0714327,3.51622974 18.928166,3.13924816 18.928166,2.54311249 C18.928166,2.05689647 19.0138177,1.61242137 19.3506001,1.26119239 C19.6039007,0.999555069 20.0006392,0.878957508 20.5405874,0.878957508 L21.2991757,0.878957508 L21.2991757,1.58135836 L20.5565186,1.58135836 C20.2705562,1.58135836 20.1090743,1.62389869 19.9535308,1.77555926 C19.8199713,1.91362976 19.728324,2.17458187 19.728324,2.5181593 C19.728324,2.86938827 19.7981016,3.12263173 19.9437665,3.28805367 C20.0644212,3.41778741 20.2836324,3.45713008 20.4898816,3.45713008 L20.8417958,3.45713008 L21.9461885,0.879014609 L23.1202446,0.879014609 L24.446932,3.97977661 L24.446932,0.879014609 L25.6400027,0.879014609 L27.0173959,3.16214571 L27.0173959,0.879014609 L27.8200092,0.879014609 L27.8200092,4.15718979 Z M17.7448025,4.15718979 L18.5443323,4.15718979 L18.5443323,0.878957508 L17.7448025,0.878957508 L17.7448025,4.15718979 Z M17.2903347,1.76185499 C17.2903347,2.28450152 16.9415039,2.55453271 16.7381669,2.6356163 C16.9096415,2.70088288 17.0561059,2.81617003 17.1257692,2.9117002 C17.2364312,3.074781 17.255503,3.22038885 17.255503,3.51320338 L17.255503,4.15718979 L16.4651664,4.15718979 L16.4621972,3.74377769 C16.4621972,3.54649333 16.4810976,3.26281498 16.3385161,3.10510169 C16.2240284,2.98981453 16.0494703,2.96480424 15.7673908,2.96480424 L14.9262342,2.96480424 L14.9262342,4.15718979 L14.1426926,4.15718979 L14.1426926,0.878957508 L15.9449752,0.878957508 C16.3454254,0.878957508 16.6404668,0.889521214 16.8938245,1.03598558 C17.1417005,1.18239285 17.2903347,1.39617943 17.2903347,1.76185499 Z M13.5995468,4.15718979 L10.9819174,4.15718979 L10.9819174,0.878957508 L13.5995468,0.878957508 L13.5995468,1.56160137 L11.765516,1.56160137 L11.765516,2.15248374 L13.5555218,2.15248374 L13.5555218,2.8245068 L11.765516,2.8245068 L11.765516,3.47917111 L13.5995468,3.47917111 L13.5995468,4.15718979 Z M10.3979442,4.15718979 L9.59464571,4.15718979 L9.59167645,1.58969512 L8.4554213,4.15718979 L7.76740993,4.15718979 L6.62824263,1.58741108 L6.62824263,4.15718979 L5.03449333,4.15718979 L4.73339914,3.42595287 L3.101906,3.42595287 L2.79772834,4.15718979 L1.94669328,4.15718979 L3.34989615,0.878957508 L4.51413084,0.878957508 L5.84681383,3.98274587 L5.84681383,0.878957508 L7.12570757,0.878957508 L8.15118655,3.10281764 L9.09324079,0.878957508 L10.39783,0.878957508 L10.39783,4.15718979 L10.3979442,4.15718979 Z M23.0564627,2.74262379 L22.5142304,1.43575051 L21.9749675,2.74262379 L23.0564627,2.74262379 Z M16.2656551,2.2222042 C16.1579624,2.28758498 16.0306269,2.28975483 15.8780527,2.28975483 L14.92612,2.28975483 L14.92612,1.56160137 L15.8909576,1.56160137 C16.0275434,1.56160137 16.1700107,1.56771119 16.2625716,1.62075813 C16.3642116,1.66849466 16.4271371,1.77013465 16.4271371,1.9105463 C16.4271371,2.05381301 16.3672951,2.16910017 16.2656551,2.2222042 Z M4.4505202,2.74262379 L3.9142265,1.43575051 L3.38095916,2.74262379 L4.4505202,2.74262379 Z" id="Fill-4" fill="#FFFFFE"></path>
                    <path d="M17.3943217,7.54506212 C17.3943217,8.45593915 16.7147613,8.64403023 16.0298334,8.64403023 L15.052091,8.64403023 L15.052091,9.74385487 L13.5290328,9.74385487 L12.5641952,8.65836261 L11.5614425,9.74385487 L8.45759705,9.74385487 L8.45759705,6.46482317 L11.6091791,6.46482317 L12.5732743,7.53963751 L13.5699743,6.46482317 L16.0738013,6.46482317 C16.6956895,6.46482317 17.3943217,6.63698304 17.3943217,7.54506212 Z M11.1647611,9.06052579 L9.23816933,9.06052579 L9.23816933,8.40808841 L10.9584547,8.40808841 L10.9584547,7.73909172 L9.23816933,7.73909172 L9.23816933,7.14295605 L11.2027333,7.14295605 L12.0598211,8.09848615 L11.1647611,9.06052579 Z M14.2716329,9.44567283 L13.0685694,8.10996348 L14.2716329,6.81673736 L14.2716329,9.44567283 Z M16.0647222,7.9780599 L15.052091,7.9780599 L15.052091,7.14301315 L16.0738013,7.14301315 C16.3566802,7.14301315 16.5530509,7.25835741 16.5530509,7.54506212 C16.5530509,7.82868337 16.3658164,7.9780599 16.0647222,7.9780599 Z M21.3514863,6.46482317 L23.9667746,6.46482317 L23.9667746,7.14295605 L22.1318873,7.14295605 L22.1318873,7.73909172 L23.9219502,7.73909172 L23.9219502,8.40808841 L22.1318873,8.40808841 L22.1318873,9.06052579 L23.9667746,9.06349505 L23.9667746,9.74385487 L21.3514863,9.74385487 L21.3514863,6.46482317 Z M20.3616384,8.22005443 C20.5360252,8.28440739 20.6786067,8.39980875 20.7454721,8.49533892 C20.8561341,8.65539336 20.8721224,8.80482698 20.8753201,9.09381574 L20.8753201,9.74385487 L20.088638,9.74385487 L20.088638,9.33364043 C20.088638,9.13635607 20.1075955,8.84428385 19.9619306,8.69176677 C19.8474428,8.57430977 19.6729418,8.54621602 19.3870936,8.54621602 L18.5496486,8.54621602 L18.5496486,9.74385487 L17.7622813,9.74385487 L17.7622813,6.46482317 L19.5713589,6.46482317 C19.9680975,6.46482317 20.2570292,6.48229611 20.5142126,6.6195672 C20.7615175,6.76900083 20.9170039,6.97365123 20.9170039,7.34772066 C20.9169468,7.8711095 20.5678876,8.13817143 20.3616384,8.22005443 Z M19.8883843,7.81195274 C19.7835467,7.87413586 19.6539271,7.87950337 19.5014672,7.87950337 L18.5495344,7.87950337 L18.5495344,7.14301315 L19.5144291,7.14301315 C19.6539271,7.14301315 19.7935394,7.14598241 19.8883843,7.20228411 C19.9899101,7.25538815 20.0506657,7.35691394 20.0506657,7.49721138 C20.0506657,7.63750883 19.9899101,7.75056904 19.8883843,7.81195274 Z M26.9590445,8.01443331 C27.1116186,8.172375 27.1933874,8.371715 27.1933874,8.70918261 C27.1933874,9.41460982 26.752681,9.74385487 25.9624587,9.74385487 L24.43626,9.74385487 L24.43626,9.0407117 L25.9563488,9.0407117 C26.1049259,9.0407117 26.2103346,9.02106892 26.2764006,8.95957101 C26.3303041,8.90880812 26.3689615,8.83514768 26.3689615,8.74567022 C26.3689615,8.65014005 26.3271064,8.57430977 26.2733171,8.52885728 C26.2134181,8.4787796 26.1307356,8.45605335 25.9943211,8.45605335 C25.2614853,8.43104306 24.3438133,8.4787796 24.3438133,7.44113808 C24.3438133,6.96554287 24.6426234,6.46493737 25.4640801,6.46493737 L27.0349889,6.46493737 L27.0349889,7.16282724 L25.5975825,7.16282724 C25.4551152,7.16282724 25.3624401,7.16813764 25.2836406,7.2220411 C25.1978176,7.27514513 25.1659552,7.35394468 25.1659552,7.45798291 C25.1659552,7.58166394 25.2388733,7.66583098 25.3374298,7.7022044 C25.4201122,7.73098336 25.5089045,7.73937722 25.6424069,7.73937722 L26.0642128,7.75074035 C26.4895591,7.76113275 26.7815742,7.83467899 26.9590445,8.01443331 Z M30.0847597,9.32444715 C29.8943845,9.602758 29.5235128,9.74385487 29.0214226,9.74385487 L27.5081288,9.74385487 L27.5081288,9.0407117 L29.0152557,9.0407117 C29.1647464,9.0407117 29.2694128,9.02106892 29.3323953,8.95957101 C29.3869269,8.90880812 29.4250133,8.83514768 29.4250133,8.74567022 C29.4250133,8.65014005 29.3869269,8.57430977 29.3293119,8.52885728 C29.2724392,8.4787796 29.1896996,8.45605335 29.053228,8.45605335 C28.3174801,8.43104306 27.3995796,8.4787796 27.3995796,7.44113808 C27.3995796,6.96554287 27.7015303,6.46493737 28.5238435,6.46493737 L30.0846455,6.46493737 L30.0847597,5.8125 L28.6345055,5.8125 C28.1968254,5.8125 27.8789435,5.91733765 27.6537938,6.08030424 L27.6537938,5.8125 L25.5087903,5.8125 C25.1657839,5.8125 24.7631639,5.89752356 24.5727316,6.08030424 L24.5727316,5.8125 L20.7423316,5.8125 L20.7423316,6.08030424 C20.4374687,5.86035074 19.9231018,5.8125 19.6856754,5.8125 L17.1591222,5.8125 L17.1591222,6.08030424 C16.9179271,5.84670357 16.3816334,5.8125 16.0547295,5.8125 L13.2270821,5.8125 L12.5800123,6.51278811 L11.9739981,5.8125 L7.75,5.8125 L7.75,10.3878413 L11.8944562,10.3878413 L12.561226,9.67653265 L13.1892812,10.3878413 L15.7439281,10.3901253 L15.7439281,9.31382635 L15.9951159,9.31382635 C16.3340682,9.31907965 16.7338331,9.30543248 17.0865467,9.1529725 L17.0865467,10.3877842 L19.193635,10.3877842 L19.193635,9.19528443 L19.2953321,9.19528443 C19.4250088,9.19528443 19.4377994,9.20065193 19.4377994,9.33027147 L19.4377994,10.38767 L25.8388347,10.38767 C26.2452234,10.38767 26.6700557,10.2836317 26.9052552,10.0949125 L26.9052552,10.38767 L28.9356568,10.38767 C29.3581479,10.38767 29.7708177,10.3284561 30.0847597,10.1767384 L30.0847597,9.32444715 Z M30.0847597,7.16259883 L28.6566036,7.16259883 C28.5140221,7.16259883 28.4192913,7.16796634 28.3395211,7.22186979 C28.2568387,7.27491673 28.2250333,7.35377337 28.2250333,7.45775451 C28.2250333,7.58149263 28.2948109,7.66560258 28.3963938,7.70197599 C28.4790191,7.73075495 28.5678114,7.73920592 28.6983445,7.73920592 L29.1230626,7.75056904 C29.5516065,7.76113275 29.837626,7.83479319 30.0120699,8.01449041 C30.0438182,8.0395007 30.0628899,8.06753735 30.0847597,8.0956311 L30.0847597,7.16259883 Z" id="Fill-5" fill="#FFFFFE"></path>
                    <rect id="Rectangle" fill="#FFFFFE" x="30.0796875" y="5.8125" width="1" height="4.359375"></rect>
                    <path d="M29.2119824,9.01124685 L27.5185905,9.01124685 L27.5185905,9.745625 L29.2073517,9.745625 C29.9182131,9.745625 30.3392457,9.31496778 30.3392457,8.68364591 C30.3392457,8.08973301 29.9695142,7.74360918 29.3196694,7.74360918 L28.5431607,7.74360918 C28.3699172,7.74360918 28.248338,7.63592218 28.248338,7.47230331 C28.248338,7.30868444 28.3699172,7.20562815 28.5431607,7.20562815 L29.9556221,7.20562815 L30.2782291,6.47125 L28.5524221,6.47125 C27.8412883,6.47125 27.415625,6.90617475 27.415625,7.50045084 C27.415625,8.11788054 27.8180439,8.47335661 28.4401952,8.47335661 L29.2119824,8.47335661 C29.3848627,8.47335661 29.5114358,8.58095282 29.5114358,8.74466249 C29.5114358,8.90819056 29.3848627,9.01124685 29.2119824,9.01124685 L29.2119824,9.01124685 Z" id="Path" fill="#006FAC"></path>
                </g>
                <path d="M34.0751,1 C35.6879,1 37,2.3121 37,3.9249 L37,21.0751 C37,22.6879 35.6879,24 34.0751,24 L3.9249,24 C2.3121,24 1,22.6879 1,21.0751 L1,3.9249 C1,2.3121 2.3121,1 3.9249,1 L34.0751,1 L34.0751,1 Z M34.0751,0 L3.9249,0 C1.7572,0 0,1.7572 0,3.9249 L0,21.0751 C0,23.2428 1.7572,25 3.9249,25 L34.0751,25 C36.2428,25 38,23.2428 38,21.0751 L38,3.9249 C38,1.7572 36.2428,0 34.0751,0 L34.0751,0 Z" id="Shape" fill="#E3EAED"></path>
            </g>
        </g>
    </g>
</svg> 
